<mxfile host="app.diagrams.net" modified="2022-07-30T20:22:26.664Z" agent="5.0 (Windows NT 10.0; Win64; x64) AppleWebKit/537.36 (KHTML, like Gecko) Chrome/103.0.0.0 Safari/537.36" etag="LUguCpeO3faF5g6zPmWj" version="20.2.2" type="github">
  <diagram name="Page-1" id="b520641d-4fe3-3701-9064-5fc419738815">
    <mxGraphModel dx="1304" dy="529" grid="1" gridSize="10" guides="1" tooltips="1" connect="1" arrows="1" fold="1" page="1" pageScale="1" pageWidth="1100" pageHeight="850" background="none" math="0" shadow="0">
      <root>
        <mxCell id="0" />
        <mxCell id="1" parent="0" />
        <mxCell id="TcNPbHPtyNJaSQPeOQcQ-7" value="Search Text" style="edgeStyle=orthogonalEdgeStyle;rounded=0;orthogonalLoop=1;jettySize=auto;html=1;" edge="1" parent="1" source="TcNPbHPtyNJaSQPeOQcQ-1" target="TcNPbHPtyNJaSQPeOQcQ-5">
          <mxGeometry x="0.4286" relative="1" as="geometry">
            <mxPoint as="offset" />
          </mxGeometry>
        </mxCell>
        <mxCell id="TcNPbHPtyNJaSQPeOQcQ-14" value="Sign up or Sign in" style="edgeStyle=orthogonalEdgeStyle;rounded=0;orthogonalLoop=1;jettySize=auto;html=1;exitX=0;exitY=0.5;exitDx=0;exitDy=0;entryX=0;entryY=0;entryDx=0;entryDy=0;" edge="1" parent="1" source="TcNPbHPtyNJaSQPeOQcQ-1" target="TcNPbHPtyNJaSQPeOQcQ-5">
          <mxGeometry x="0.1108" relative="1" as="geometry">
            <mxPoint as="offset" />
          </mxGeometry>
        </mxCell>
        <mxCell id="TcNPbHPtyNJaSQPeOQcQ-1" value="User" style="rounded=0;whiteSpace=wrap;html=1;" vertex="1" parent="1">
          <mxGeometry x="490" y="120" width="120" height="50" as="geometry" />
        </mxCell>
        <mxCell id="TcNPbHPtyNJaSQPeOQcQ-8" style="edgeStyle=orthogonalEdgeStyle;rounded=0;orthogonalLoop=1;jettySize=auto;html=1;" edge="1" parent="1" source="TcNPbHPtyNJaSQPeOQcQ-2" target="TcNPbHPtyNJaSQPeOQcQ-5">
          <mxGeometry relative="1" as="geometry" />
        </mxCell>
        <mxCell id="TcNPbHPtyNJaSQPeOQcQ-9" value="Books and Info" style="edgeLabel;html=1;align=center;verticalAlign=middle;resizable=0;points=[];" vertex="1" connectable="0" parent="TcNPbHPtyNJaSQPeOQcQ-8">
          <mxGeometry x="-0.2227" relative="1" as="geometry">
            <mxPoint y="22" as="offset" />
          </mxGeometry>
        </mxCell>
        <mxCell id="TcNPbHPtyNJaSQPeOQcQ-2" value="Admin" style="rounded=0;whiteSpace=wrap;html=1;" vertex="1" parent="1">
          <mxGeometry x="260" y="240" width="120" height="50" as="geometry" />
        </mxCell>
        <mxCell id="TcNPbHPtyNJaSQPeOQcQ-6" style="edgeStyle=orthogonalEdgeStyle;rounded=0;orthogonalLoop=1;jettySize=auto;html=1;entryX=0;entryY=0.5;entryDx=0;entryDy=0;" edge="1" parent="1" source="TcNPbHPtyNJaSQPeOQcQ-5" target="TcNPbHPtyNJaSQPeOQcQ-3">
          <mxGeometry relative="1" as="geometry" />
        </mxCell>
        <mxCell id="TcNPbHPtyNJaSQPeOQcQ-10" value="Author Rights" style="edgeLabel;html=1;align=center;verticalAlign=middle;resizable=0;points=[];" vertex="1" connectable="0" parent="TcNPbHPtyNJaSQPeOQcQ-6">
          <mxGeometry x="-0.2318" y="1" relative="1" as="geometry">
            <mxPoint y="-16" as="offset" />
          </mxGeometry>
        </mxCell>
        <mxCell id="TcNPbHPtyNJaSQPeOQcQ-3" value="Author" style="rounded=0;whiteSpace=wrap;html=1;" vertex="1" parent="1">
          <mxGeometry x="720" y="240" width="120" height="50" as="geometry" />
        </mxCell>
        <mxCell id="TcNPbHPtyNJaSQPeOQcQ-12" style="edgeStyle=orthogonalEdgeStyle;rounded=0;orthogonalLoop=1;jettySize=auto;html=1;exitX=1;exitY=0;exitDx=0;exitDy=0;entryX=1;entryY=0.5;entryDx=0;entryDy=0;" edge="1" parent="1" source="TcNPbHPtyNJaSQPeOQcQ-5" target="TcNPbHPtyNJaSQPeOQcQ-1">
          <mxGeometry relative="1" as="geometry" />
        </mxCell>
        <mxCell id="TcNPbHPtyNJaSQPeOQcQ-13" value="Result Data" style="edgeLabel;html=1;align=center;verticalAlign=middle;resizable=0;points=[];" vertex="1" connectable="0" parent="TcNPbHPtyNJaSQPeOQcQ-12">
          <mxGeometry x="-0.1348" y="-2" relative="1" as="geometry">
            <mxPoint as="offset" />
          </mxGeometry>
        </mxCell>
        <mxCell id="TcNPbHPtyNJaSQPeOQcQ-5" value="Library Website" style="rounded=1;whiteSpace=wrap;html=1;" vertex="1" parent="1">
          <mxGeometry x="490" y="240" width="120" height="140" as="geometry" />
        </mxCell>
        <mxCell id="TcNPbHPtyNJaSQPeOQcQ-15" value="" style="swimlane;startSize=0;" vertex="1" parent="1">
          <mxGeometry x="220" y="50" width="660" height="390" as="geometry" />
        </mxCell>
      </root>
    </mxGraphModel>
  </diagram>
</mxfile>
